# xmcd CD database file
#
# Track frame offsets:
#	150
#	27123
#	55532
#	88034
#	119404
#	123040
#	152364
#	182515
#	202783
#	219959
#
# Disc length: 3390 seconds
#
# Revision: 0
# Processed by: cddbd v1.5PL3 Copyright (c) Steve Scherf et al.
# Submitted via: CDex 1.51
#
DISCID=6d0d3c0a
DTITLE=The New Power Trio - The New Power Trio
DYEAR=2000
DGENRE=Jazz
TTITLE0=Yes and No
TTITLE1=Persons Unknown
TTITLE2=Wolof
TTITLE3=El Cuarto de Tula
TTITLE4=Ida Doun Doun
TTITLE5=You Don't Know What Love Is
TTITLE6=Bembe
TTITLE7=Serenade
TTITLE8=Ida Lupino
TTITLE9=But Not For Me
EXTD=YEAR: 2000
EXTT0=
EXTT1=
EXTT2=
EXTT3=
EXTT4=
EXTT5=
EXTT6=
EXTT7=
EXTT8=
EXTT9=
PLAYORDER=
